<svg width="200" height="200" viewBox="0 0 200 200" fill="none" xmlns="http://www.w3.org/2000/svg">
<path d="M160.5 10.8437C153.452 8.66774 108.296 -3.88426 46.74 10.8997C46.108 11.0517 45.604 11.5437 45.44 12.1757L28.656 77.1157C28.504 77.6957 28.664 78.3157 29.076 78.7517L63.736 115.536C64.508 116.356 65.84 116.244 66.464 115.308L70.4281 109.364C70.904 108.648 70.792 107.688 70.156 107.104L39.992 79.3997C39.992 79.3997 33.612 74.2957 39.14 69.1957C44.232 64.4957 65.92 33.8197 69.308 29.0077C69.596 28.5997 70.04 28.3397 70.536 28.2837L84.1241 26.7317C84.46 26.6917 84.7801 26.5597 85.0401 26.3437L94.0601 18.8957C94.596 18.4557 95.34 18.3717 95.96 18.6797L111.452 26.4677C111.72 26.6037 112.016 26.6637 112.312 26.6517L140.448 25.4277C140.928 25.4077 141.392 25.5837 141.736 25.9157L163.544 46.9317C164.148 47.5117 164.252 48.4397 163.8 49.1437L150.228 70.0837C149.564 71.1117 148.072 71.1557 147.348 70.1677L143.856 65.4037C143.316 64.6637 142.296 64.4677 141.52 64.9557L137.904 67.2157C136.968 67.7997 135.732 67.3837 135.34 66.3517L133.788 62.2517C133.428 61.2957 132.324 60.8517 131.4 61.2917L126.796 63.4797C125.72 63.9917 124.456 63.2997 124.308 62.1157L124.016 59.7837C123.88 58.7037 122.804 58.0077 121.764 58.3277L117.092 59.7717C115.968 60.1197 114.828 59.2797 114.828 58.0997C114.828 56.8797 113.612 56.0357 112.472 56.4597L102.476 60.1637C101.952 60.3557 101.372 60.2917 100.904 59.9837L91.932 54.0677C91.3721 53.6957 90.648 53.6837 90.0681 54.0277L87.272 55.7077C86.108 56.4037 86.148 58.1037 87.3441 58.7477L96.008 63.4077C96.3241 63.5797 96.688 63.6477 97.0441 63.6037L104.952 62.6597C106.08 62.5237 107.036 63.4837 106.896 64.6117L105.956 72.1437C105.768 73.6397 107.436 74.6557 108.68 73.8037L108.9 73.6517C109.912 72.9597 111.308 73.4957 111.592 74.6917L112.108 76.8637C112.396 78.0717 113.816 78.6077 114.828 77.8837L116.32 76.8157C117.388 76.0517 118.884 76.6917 119.068 77.9917L119.512 81.1077C119.7 82.4317 121.248 83.0637 122.308 82.2477L123.396 81.4117C124.38 80.6517 125.824 81.1357 126.148 82.3397L127.44 87.0757C127.736 88.1557 128.952 88.6837 129.94 88.1637L133.62 86.2277C134.764 85.6277 136.14 86.4277 136.184 87.7197L136.484 97.0037C136.504 97.6797 136.136 98.3077 135.536 98.6157L122.452 105.344C121.94 105.608 121.336 105.6 120.828 105.332L77.868 82.4197C77.324 82.1277 76.972 81.5717 76.944 80.9557L76.204 64.6717C76.168 63.8397 75.548 63.1477 74.724 63.0237L72.3 62.6517C71.364 62.5077 70.48 63.1357 70.312 64.0717L67.82 77.9437C67.708 78.5797 67.952 79.2237 68.456 79.6237L92.8881 98.9317C93.536 99.4437 93.736 100.336 93.372 101.076L81.4281 125.348C81.0681 126.08 81.2601 126.964 81.8961 127.476L100.124 142.288C100.764 142.808 101.684 142.812 102.328 142.288L176.496 82.2077C177.012 81.7877 177.248 81.1117 177.1 80.4637L161.68 12.1277C161.54 11.5197 161.096 11.0277 160.5 10.8437Z" fill="#EBEBEB"/>
<path d="M88.512 34.8881C88.512 34.8881 97.536 27.3681 109.572 34.8881L105.088 42.1081C105.088 42.1081 102.652 44.5161 97.536 42.1081C92.424 39.7001 96.332 33.0841 88.512 34.8881Z" fill="#2F80ED"/>
<path d="M22.8601 196.196L29.7601 164.992L35.5441 160.68H48.8361L52.2881 164.992L45.3361 196.196H36.4041L38.4321 187.216H33.8161L31.7881 196.196H22.8601ZM42.1881 169.664H37.8761L35.8481 178.592H40.4641L42.1881 169.664Z" fill="#EBEBEB"/>
<path d="M57.3601 196.196H48.4321L56.5001 160.68H74.4121L77.8601 165.044L75.8801 173.972L70.3481 178.588L73.8481 182.952L71.7681 191.88L66.3401 196.192H61.9761L64.8681 182.948H60.5561L57.3601 196.196ZM62.5841 173.976H66.8961L68.0641 169.612H63.4481L62.5841 173.976Z" fill="#EBEBEB"/>
<path d="M83.4361 196.196H74.5081L82.3201 160.68H91.2481L88.3561 173.972H92.9721L95.8641 160.68H104.792L101.952 173.972L96.4201 178.588L99.9201 182.9L96.7241 196.192H87.8001L90.9441 182.9H86.3801L83.4361 196.196Z" fill="#EBEBEB"/>
<path d="M109.364 196.196H100.436L108.504 160.68H117.484L109.364 196.196Z" fill="#EBEBEB"/>
<path d="M129 160.68L124.636 180.06L126.056 183.764L129 180.06L133.564 160.68H142.544L137.316 182.904L125.496 196.196H120.928L115.144 182.904L120.064 160.68H129Z" fill="#EBEBEB"/>
<path d="M162.584 187.268L160.556 196.196H142.644L139.192 191.884L145.28 164.992L150.708 160.68H168.62L166.64 169.608H153.348L152.18 173.972H165.776L163.748 182.9H150.148L149.284 187.264H162.584V187.268Z" fill="#EBEBEB"/>
</svg>
