<svg width="200" height="200" viewBox="0 0 200 200" fill="none" xmlns="http://www.w3.org/2000/svg">
<path d="M160.5 10.8442C153.452 8.66823 108.296 -3.88377 46.74 10.9002C46.108 11.0522 45.604 11.5442 45.44 12.1762L28.656 77.1162C28.504 77.6962 28.664 78.3162 29.076 78.7522L63.736 115.536C64.508 116.356 65.84 116.244 66.464 115.308L70.4281 109.364C70.904 108.648 70.792 107.688 70.156 107.104L39.992 79.4002C39.992 79.4002 33.612 74.2962 39.14 69.1962C44.232 64.4962 65.92 33.8202 69.308 29.0082C69.596 28.6002 70.04 28.3402 70.536 28.2842L84.1241 26.7322C84.46 26.6922 84.7801 26.5602 85.0401 26.3442L94.0601 18.8962C94.596 18.4562 95.34 18.3722 95.96 18.6802L111.452 26.4682C111.72 26.6042 112.016 26.6642 112.312 26.6522L140.448 25.4282C140.928 25.4082 141.392 25.5842 141.736 25.9162L163.544 46.9322C164.148 47.5122 164.252 48.4402 163.8 49.1442L150.228 70.0842C149.564 71.1122 148.072 71.1562 147.348 70.1682L143.856 65.4042C143.316 64.6642 142.296 64.4682 141.52 64.9562L137.904 67.2162C136.968 67.8002 135.732 67.3842 135.34 66.3522L133.788 62.2522C133.428 61.2962 132.324 60.8522 131.4 61.2922L126.796 63.4802C125.72 63.9922 124.456 63.3002 124.308 62.1162L124.016 59.7842C123.88 58.7042 122.804 58.0082 121.764 58.3282L117.092 59.7722C115.968 60.1202 114.828 59.2802 114.828 58.1002C114.828 56.8802 113.612 56.0362 112.472 56.4602L102.476 60.1642C101.952 60.3562 101.372 60.2922 100.904 59.9842L91.932 54.0682C91.3721 53.6962 90.648 53.6842 90.0681 54.0282L87.272 55.7082C86.108 56.4042 86.148 58.1042 87.3441 58.7482L96.008 63.4082C96.3241 63.5802 96.688 63.6482 97.0441 63.6042L104.952 62.6602C106.08 62.5242 107.036 63.4842 106.896 64.6122L105.956 72.1442C105.768 73.6402 107.436 74.6562 108.68 73.8042L108.9 73.6522C109.912 72.9602 111.308 73.4962 111.592 74.6922L112.108 76.8642C112.396 78.0722 113.816 78.6082 114.828 77.8842L116.32 76.8162C117.388 76.0522 118.884 76.6922 119.068 77.9922L119.512 81.1082C119.7 82.4322 121.248 83.0642 122.308 82.2482L123.396 81.4122C124.38 80.6522 125.824 81.1362 126.148 82.3402L127.44 87.0762C127.736 88.1562 128.952 88.6842 129.94 88.1642L133.62 86.2282C134.764 85.6282 136.14 86.4282 136.184 87.7202L136.484 97.0042C136.504 97.6802 136.136 98.3082 135.536 98.6162L122.452 105.344C121.94 105.608 121.336 105.6 120.828 105.332L77.868 82.4202C77.324 82.1282 76.972 81.5722 76.944 80.9562L76.204 64.6722C76.168 63.8402 75.548 63.1482 74.724 63.0242L72.3 62.6522C71.364 62.5082 70.48 63.1362 70.312 64.0722L67.82 77.9442C67.708 78.5802 67.952 79.2242 68.456 79.6242L92.8881 98.9322C93.536 99.4442 93.736 100.336 93.372 101.076L81.4281 125.348C81.0681 126.08 81.2601 126.964 81.8961 127.476L100.124 142.288C100.764 142.808 101.684 142.812 102.328 142.288L176.496 82.2082C177.012 81.7882 177.248 81.1122 177.1 80.4642L161.68 12.1282C161.54 11.5202 161.096 11.0282 160.5 10.8442Z" fill="#001833"/>
<path d="M88.5122 34.8881C88.5122 34.8881 97.5362 27.3681 109.572 34.8881L105.088 42.1081C105.088 42.1081 102.652 44.5161 97.5362 42.1081C92.4242 39.7001 96.3322 33.0841 88.5122 34.8881Z" fill="#2F80ED"/>
<path d="M22.8599 196.196L29.7599 164.992L35.5439 160.68H48.8359L52.2879 164.992L45.3359 196.196H36.4039L38.4319 187.216H33.8159L31.7879 196.196H22.8599ZM42.1879 169.664H37.8759L35.8479 178.592H40.4639L42.1879 169.664Z" fill="#001833"/>
<path d="M57.3596 196.196H48.4316L56.4996 160.68H74.4116L77.8596 165.044L75.8796 173.972L70.3476 178.588L73.8476 182.952L71.7676 191.88L66.3396 196.192H61.9756L64.8676 182.948H60.5556L57.3596 196.196ZM62.5836 173.976H66.8956L68.0636 169.612H63.4476L62.5836 173.976Z" fill="#001833"/>
<path d="M83.4358 196.196H74.5078L82.3198 160.68H91.2478L88.3558 173.972H92.9718L95.8638 160.68H104.792L101.952 173.972L96.4198 178.588L99.9198 182.9L96.7238 196.192H87.7998L90.9438 182.9H86.3798L83.4358 196.196Z" fill="#001833"/>
<path d="M109.364 196.196H100.436L108.504 160.68H117.484L109.364 196.196Z" fill="#001833"/>
<path d="M129 160.68L124.636 180.06L126.056 183.764L129 180.06L133.564 160.68H142.544L137.316 182.904L125.496 196.196H120.928L115.144 182.904L120.064 160.68H129Z" fill="#001833"/>
<path d="M162.584 187.268L160.556 196.196H142.644L139.192 191.884L145.28 164.992L150.708 160.68H168.62L166.64 169.608H153.348L152.18 173.972H165.776L163.748 182.9H150.148L149.284 187.264H162.584V187.268Z" fill="#001833"/>
</svg>
