<svg width="163" height="152" viewBox="0 0 163 152" fill="none" xmlns="http://www.w3.org/2000/svg">
<path d="M144.364 7.70737C136.65 5.32577 87.2269 -8.41227 19.8545 7.76867C19.1628 7.93503 18.6112 8.47352 18.4317 9.16523L0.0617702 80.2414C-0.104592 80.8762 0.0705274 81.5548 0.521457 82.032L38.4565 122.292C39.3014 123.189 40.7593 123.067 41.4422 122.042L45.7808 115.537C46.3018 114.753 46.1792 113.702 45.4831 113.063L12.4689 82.7412C12.4689 82.7412 5.48606 77.1549 11.5364 71.573C17.1095 66.4289 40.8468 32.8544 44.555 27.5877C44.8702 27.1411 45.3561 26.8566 45.899 26.7953L60.7709 25.0966C61.1387 25.0528 61.4889 24.9084 61.7735 24.672L71.6458 16.5202C72.2324 16.0386 73.0467 15.9467 73.7253 16.2838L90.6812 24.8077C90.9745 24.9565 91.2984 25.0222 91.6224 25.0091L122.417 23.6694C122.942 23.6475 123.45 23.8402 123.827 24.2035L147.695 47.2053C148.356 47.8401 148.47 48.8558 147.976 49.6263L133.121 72.545C132.394 73.6701 130.761 73.7182 129.969 72.6369L126.147 67.4227C125.556 66.6128 124.44 66.3983 123.59 66.9324L119.633 69.4059C118.608 70.0451 117.255 69.5898 116.826 68.4603L115.128 63.9729C114.734 62.9266 113.525 62.4406 112.514 62.9222L107.475 65.3169C106.297 65.8773 104.914 65.1199 104.752 63.8241L104.432 61.2717C104.283 60.0897 103.106 59.3279 101.968 59.6781L96.8541 61.2586C95.6239 61.6394 94.3762 60.7201 94.3762 59.4286C94.3762 58.0933 93.0452 57.1695 91.7975 57.6336L80.857 61.6876C80.2835 61.8977 79.6487 61.8277 79.1365 61.4906L69.3167 55.0156C68.7038 54.6084 67.9114 54.5953 67.2766 54.9718L64.2164 56.8106C62.9424 57.5723 62.9862 59.433 64.2952 60.1378L73.7779 65.2381C74.1237 65.4264 74.5221 65.5008 74.9117 65.4526L83.567 64.4194C84.8016 64.2706 85.8479 65.3213 85.6946 66.5559L84.6658 74.7996C84.4601 76.437 86.2857 77.5489 87.6472 76.6164L87.888 76.4501C88.9956 75.6927 90.5235 76.2793 90.8344 77.5883L91.3991 79.9656C91.7143 81.2877 93.2685 81.8744 94.3762 81.082L96.0091 79.913C97.178 79.0769 98.8154 79.7773 99.0168 81.2002L99.5027 84.6106C99.7085 86.0597 101.403 86.7514 102.563 85.8583L103.754 84.9433C104.831 84.1115 106.411 84.6413 106.766 85.959L108.18 91.1425C108.504 92.3246 109.835 92.9025 110.916 92.3333L114.944 90.2144C116.196 89.5577 117.702 90.4333 117.75 91.8474L118.078 102.009C118.1 102.748 117.698 103.436 117.041 103.773L102.721 111.137C102.16 111.426 101.499 111.417 100.943 111.124L53.9238 86.0466C53.3284 85.727 52.9431 85.1184 52.9125 84.4442L52.1026 66.6216C52.0632 65.7109 51.3846 64.9536 50.4827 64.8178L47.8297 64.4107C46.8052 64.2531 45.8377 64.9404 45.6538 65.9649L42.9264 81.1476C42.8038 81.8437 43.0708 82.5486 43.6225 82.9864L70.363 104.119C71.0723 104.679 71.2912 105.655 70.8928 106.465L57.8202 133.031C57.4262 133.832 57.6363 134.8 58.3324 135.36L78.2828 151.571C78.9832 152.141 79.9902 152.145 80.695 151.571L161.871 85.8145C162.436 85.3549 162.694 84.615 162.532 83.9057L145.655 9.1127C145.502 8.44725 145.016 7.90876 144.364 7.70737Z" fill="#D05B50"/>
<path d="M80.7284 34.0899H81.2779L82.1684 34.2158L82.8505 34.6115L83.3242 35.3849L83.5895 35.9065L84.0632 36.8777L84.7453 38.3705L85.2189 39.3417L86.3179 41.1583L86.7916 42.2014L87 43.1007L86.7347 43.6763L85.8442 43.9281L85.3705 44H84.2716L81.2021 43.8022L79.1558 43.9281H78.0568L77.5074 43.8561L76.6168 43.7302L76.0105 43.4784L75.461 42.9029L71.9747 38.946L70.1368 36.9317L69.5305 36.0863L69.2653 35.6906L69 34.8453L69.2653 34.3237L70.1558 34.1259L70.7621 34.054H71.9179L75.12 34.2518L79.6863 34L80.7095 34.0719L80.7284 34.0899ZM72.7516 35.7806L72.8274 35.8525H72.96V35.7266H72.8842L72.7516 35.6547V35.7806ZM73.2253 36.1043L73.4337 36.6799L73.5095 36.2842L73.3768 36.0863H73.2442L73.2253 36.1043ZM73.4905 37.9748V38.1727L73.7558 38.1007L73.8316 37.9029L73.6989 37.777L73.4905 37.9748ZM73.9074 37.0036L73.8316 37.0755V37.1475L73.9642 37.2194L74.04 37.1475V37.0216H73.9074V37.0036ZM73.8316 38.4964V38.7482L74.1726 38.5504L74.04 38.4245L73.8316 38.4964ZM74.4379 38.2986H74.5137L74.6463 38.7482L75.12 38.8741L74.2295 37.8309L74.4379 38.2806V38.2986ZM74.3621 37.2014L74.2863 37.5252L74.4947 37.6511L74.7031 37.5791L75.6505 37.3813L74.5516 37.0575L74.3432 37.1834L74.3621 37.2014ZM74.4947 36.6799V36.8058H74.6274L74.7031 36.7338V36.6619H74.4947V36.6799ZM74.6274 39.1439L74.5516 39.2158L74.9684 39.5396L74.8926 39.2878L74.6842 39.1619H74.6084L74.6274 39.1439ZM74.6274 39.7194L74.8926 40.295L75.1579 40.3669L75.0821 40.295L75.0063 40.1691L75.2716 39.9173L75.3474 39.6655L74.5895 39.7374L74.6274 39.7194ZM75.3853 40.4389L75.12 40.5108L75.0442 40.6367L76.2 41.0863L76.3326 41.0144L75.8589 40.1691L75.5937 40.0971L75.3853 40.4209V40.4389ZM75.3095 38.1007L75.6505 38.2986V38.4964L75.8589 38.2446L75.3095 37.795V38.1187V38.1007ZM75.3095 39.1978L75.4421 39.4496H75.5747L75.4421 39.1978H75.3095ZM75.3853 36.8597L75.461 37.0575L75.5937 37.1295H75.7263L75.8021 36.9317L75.7263 36.8058L75.461 36.6799L75.3853 36.8777V36.8597ZM75.7263 36.2122V36.4101L75.8589 36.482L76.0674 36.3561L75.8589 36.2302H75.7263V36.2122ZM75.8589 39.7734V39.9712H75.9347V40.0432L76.1432 40.1151L76.2758 39.9173L76.9579 40.1691L77.2989 40.0432L77.2232 39.8453L75.9916 39.6475L75.8589 39.7734ZM80.5579 37.9029L80.4821 38.1007H79.3263L79.1179 37.8489L78.7768 37.9748L78.4358 38.946L78.701 38.8201L78.9095 38.4964V38.3705H79.0421L78.6253 39.1439L78.2842 39.3417L78.2084 39.4676L78.0758 39.5396L77.8105 40.3849L78.4926 40.7086L79.1747 40.187H79.3074L78.9663 40.9065L79.3074 41.4281V41.8237L78.9663 42.2734L78.1516 42.5252L77.6021 42.3993L77.5263 42.3273L77.7916 42.1295L77.8674 41.9317L77.6021 41.8597L77.0526 42.3093H76.92L76.5789 41.464L76.5032 41.536H76.2947L76.1621 41.6619H76.0295L75.9537 41.5899L75.8779 41.6619L76.0105 42.0575L76.2189 42.1295L76.7684 42.9029L79.9705 42.3273L80.6526 42.6511V42.3273L80.1032 42.1295L80.0274 41.9317L79.6105 41.7338L79.5347 41.0144L79.8 40.8166L79.6674 40.4928H79.8V39.9712L79.5916 39.6475L79.3832 39.5755L79.2505 39.6475L78.9853 39.3957L78.9095 39.0719L78.9853 38.946L79.3263 38.8201L79.4021 39.018L79.3263 39.2698H79.4589L80.4821 38.3705L80.5579 38.4425L80.4821 38.5683L80.6905 39.018L80.8989 39.1439L80.3495 40.187L80.6905 40.1151L81.0316 40.3129L81.4484 39.9892L81.1074 39.6655L80.9747 39.7914H80.8421V39.5935L81.1074 39.1978L80.8989 38.7482L80.9747 38.4245L80.8421 38.1007H80.5768L80.7853 37.8489L80.52 37.9209L80.5579 37.9029ZM75.9916 37.9748L76.0674 38.0468L76.4842 38.6942L76.7495 38.2986L76.4842 37.8489L76.1432 37.777L76.0105 37.9748H75.9916ZM76.2 39.018L76.1242 39.2158L76.2568 39.3417L76.3895 39.2158L76.3137 39.018H76.1811H76.2ZM76.2 37.3993L76.2758 37.723H76.4084L76.9579 37.795V37.723L76.3516 37.3273L76.2189 37.3993H76.2ZM78.0379 38.1187H78.1137L77.9053 38.6942L77.0147 39.2158L76.5979 39.0899L76.5221 39.4137L76.6547 39.6655H77.2042L77.1284 39.4137L77.3937 39.2158L77.6589 39.6655L78 39.4676L78.0758 39.2698L78 39.1439L77.9242 39.2158H77.8484L77.7726 39.1439L78.4547 37.9209L77.6968 37.5252L77.9621 38.1007L78.0379 38.1187ZM76.8063 40.4568H76.7305L76.8063 40.7086L76.7305 40.9065H76.5979L76.5221 40.9784L76.5979 41.2302L76.8063 41.3022L76.8821 41.2302V41.1043H76.9579V41.0324L77.0905 40.8345L77.0147 40.4389L76.8821 40.3669L76.8063 40.4389V40.4568ZM77.2232 38.3885L77.2989 38.6403L77.5642 38.5683L77.7726 38.1727L77.2232 37.6511V38.3705V38.3885ZM77.64 41.0504L77.5074 41.1763V41.2482L77.5832 41.3201L77.9242 41.2482L78 40.9964L77.6589 41.0683L77.64 41.0504ZM78.2463 38.7842V38.8561L78.1705 38.9281L78.2463 39V39.0719H78.3221V38.8201H78.2463V38.7842ZM79.8758 39.3058L79.8 39.4317L79.9326 39.5575L80.141 39.4856L80.2168 39.2878L80.141 39.2158L79.8758 39.2878V39.3058ZM80.4253 41.5719L80.2168 41.5L80.141 41.6259L80.2168 41.7518H80.7663L80.8421 41.8777L81.0505 41.9496L81.3158 41.8777L81.4484 41.7518L81.3726 41.554H81.1642L80.8232 40.9784L80.4063 41.554L80.4253 41.5719ZM80.4253 38.7302L80.3495 38.8561L80.5579 38.982L80.6337 38.9101V38.7122L80.5579 38.6403L80.4253 38.7122V38.7302ZM81.4484 40.9245L81.3726 41.1223L81.4484 41.1942L81.6568 41.1223L81.7326 40.9964L81.6 40.8705L81.4674 40.9425L81.4484 40.9245ZM81.6568 38.7842V38.9101L81.7326 38.982H81.8653V38.8561L81.7895 38.7842H81.6568ZM82.0737 37.0935L82.1495 36.8417L82.0737 36.7158L81.941 36.6439L82.0737 37.0935ZM81.9979 38.8381L81.9221 38.964L81.9979 39.0899H82.2063L82.4147 38.8921L82.3389 38.8201H81.9979V38.8381ZM81.9979 39.9352L82.1305 41.0324L82.3389 41.1583H82.4716L82.3389 40.1151L82.2632 40.0432L82.3958 39.9173L82.1305 39.7194L81.9979 39.9173V39.9352ZM82.6042 37.795L82.7368 37.8669L82.8695 37.741V37.6691L82.7937 37.5971L82.5853 37.795H82.6042ZM82.8126 38.4425L82.7368 38.6942L82.8126 38.8921L82.68 39.0899V39.2878L83.0968 39.036L82.8884 38.4604H82.8126V38.4425ZM83.9116 38.3166L83.7789 38.4425L83.8547 38.5144H84.0632V38.3885L83.9874 38.3166H83.9116Z" fill="#56CCF2"/>
</svg>
