<svg width="158" height="147" viewBox="0 0 158 147" fill="none" xmlns="http://www.w3.org/2000/svg">
<path d="M139.615 7.45384C132.155 5.15058 84.3576 -8.13555 19.2014 7.51312C18.5324 7.67401 17.999 8.19478 17.8254 8.86375L0.0597383 77.6019C-0.101152 78.2158 0.0682075 78.8721 0.504304 79.3336L37.1915 118.269C38.0086 119.137 39.4185 119.018 40.079 118.028L44.2748 111.736C44.7787 110.978 44.6601 109.962 43.9869 109.344L12.0587 80.0195C12.0587 80.0195 5.3056 74.6169 11.1569 69.2187C16.5467 64.2438 39.5032 31.7736 43.0893 26.6802C43.3942 26.2483 43.8642 25.9731 44.3892 25.9139L58.7719 24.2711C59.1275 24.2287 59.4663 24.089 59.7415 23.8604L69.289 15.9768C69.8564 15.511 70.6439 15.4221 71.3001 15.7481L87.6982 23.9916C87.9819 24.1356 88.2952 24.1991 88.6085 24.1864L118.39 22.8908C118.898 22.8696 119.389 23.0559 119.753 23.4074L142.837 45.6525C143.476 46.2664 143.586 47.2487 143.108 47.9939L128.742 70.1586C128.039 71.2467 126.46 71.2933 125.694 70.2475L121.997 65.2049C121.426 64.4216 120.346 64.2141 119.525 64.7307L115.697 67.1228C114.707 67.741 113.398 67.3007 112.983 66.2083L111.341 61.8685C110.96 60.8566 109.791 60.3866 108.813 60.8524L103.94 63.1684C102.801 63.7103 101.463 62.9778 101.306 61.7246L100.997 59.2562C100.853 58.113 99.7141 57.3763 98.6133 57.715L93.6681 59.2435C92.4783 59.6118 91.2717 58.7227 91.2717 57.4737C91.2717 56.1823 89.9845 55.289 88.7779 55.7378L78.1972 59.6584C77.6426 59.8616 77.0287 59.7939 76.5333 59.4679L67.0366 53.2059C66.4438 52.8121 65.6775 52.7994 65.0635 53.1635L62.104 54.9418C60.8719 55.6785 60.9143 57.4779 62.1802 58.1596L71.3509 63.0921C71.6854 63.2742 72.0707 63.3462 72.4475 63.2996L80.8181 62.3004C82.012 62.1564 83.0239 63.1726 82.8757 64.3666L81.8808 72.3391C81.6818 73.9226 83.4473 74.998 84.7641 74.0962L84.9969 73.9353C86.0681 73.2028 87.5458 73.7701 87.8464 75.0361L88.3926 77.3351C88.6974 78.6138 90.2005 79.1811 91.2717 78.4148L92.8509 77.2843C93.9814 76.4756 95.5649 77.1531 95.7596 78.5291L96.2296 81.8274C96.4286 83.2288 98.0671 83.8978 99.1891 83.034L100.341 82.1491C101.382 81.3447 102.911 81.857 103.254 83.1314L104.621 88.1444C104.935 89.2876 106.222 89.8465 107.268 89.296L111.163 87.2468C112.374 86.6117 113.83 87.4585 113.877 88.8261L114.194 98.6531C114.215 99.3686 113.826 100.033 113.191 100.359L99.3416 107.481C98.7996 107.76 98.1603 107.752 97.6226 107.468L52.15 83.2161C51.5742 82.907 51.2016 82.3185 51.1719 81.6665L50.3887 64.4301C50.3506 63.5494 49.6943 62.8169 48.8221 62.6857L46.2563 62.2919C45.2656 62.1395 44.3299 62.8042 44.1521 63.795L41.5143 78.4783C41.3958 79.1515 41.654 79.8332 42.1875 80.2566L68.0485 100.694C68.7344 101.236 68.9461 102.18 68.5608 102.963L55.9182 128.655C55.5371 129.43 55.7404 130.365 56.4136 130.907L75.7077 146.586C76.3851 147.136 77.3589 147.14 78.0406 146.586L156.546 82.9917C157.093 82.5471 157.342 81.8316 157.186 81.1457L140.864 8.81294C140.716 8.16938 140.246 7.6486 139.615 7.45384Z" fill="#2B6B84"/>
<path d="M77.7284 31.0809H78.2779L79.1684 31.1942L79.8505 31.5504L80.3242 32.2464L80.5895 32.7158L81.0632 33.5899L81.7453 34.9335L82.2189 35.8076L83.3179 37.4424L83.7916 38.3813L84 39.1906L83.7347 39.7086L82.8442 39.9353L82.3705 40H81.2716L78.2021 39.8219L76.1558 39.9353H75.0568L74.5074 39.8705L73.6168 39.7572L73.0105 39.5306L72.461 39.0126L68.9747 35.4514L67.1368 33.6385L66.5305 32.8777L66.2653 32.5216L66 31.7608L66.2653 31.2914L67.1558 31.1133L67.7621 31.0486H68.9179L72.12 31.2266L76.6863 31L77.7095 31.0647L77.7284 31.0809ZM69.7516 32.6025L69.8274 32.6673H69.96V32.554H69.8842L69.7516 32.4892V32.6025ZM70.2253 32.8939L70.4337 33.4119L70.5095 33.0558L70.3768 32.8777H70.2442L70.2253 32.8939ZM70.4905 34.5773V34.7554L70.7558 34.6906L70.8316 34.5126L70.6989 34.3993L70.4905 34.5773ZM70.9074 33.7032L70.8316 33.768V33.8327L70.9642 33.8975L71.04 33.8327V33.7194H70.9074V33.7032ZM70.8316 35.0468V35.2734L71.1726 35.0953L71.04 34.982L70.8316 35.0468ZM71.4379 34.8687H71.5137L71.6463 35.2734L72.12 35.3867L71.2295 34.4478L71.4379 34.8525V34.8687ZM71.3621 33.8813L71.2863 34.1727L71.4947 34.286L71.7031 34.2212L72.6505 34.0432L71.5516 33.7518L71.3432 33.8651L71.3621 33.8813ZM71.4947 33.4119V33.5252H71.6274L71.7031 33.4604V33.3957H71.4947V33.4119ZM71.6274 35.6295L71.5516 35.6942L71.9684 35.9856L71.8926 35.759L71.6842 35.6457H71.6084L71.6274 35.6295ZM71.6274 36.1475L71.8926 36.6655L72.1579 36.7302L72.0821 36.6655L72.0063 36.5522L72.2716 36.3255L72.3474 36.0989L71.5895 36.1637L71.6274 36.1475ZM72.3853 36.795L72.12 36.8597L72.0442 36.973L73.2 37.3777L73.3326 37.313L72.8589 36.5522L72.5937 36.4874L72.3853 36.7788V36.795ZM72.3095 34.6906L72.6505 34.8687V35.0468L72.8589 34.8201L72.3095 34.4155V34.7068V34.6906ZM72.3095 35.6781L72.4421 35.9047H72.5747L72.4421 35.6781H72.3095ZM72.3853 33.5737L72.461 33.7518L72.5937 33.8165H72.7263L72.8021 33.6385L72.7263 33.5252L72.461 33.4119L72.3853 33.5899V33.5737ZM72.7263 32.991V33.1691L72.8589 33.2338L73.0674 33.1205L72.8589 33.0072H72.7263V32.991ZM72.8589 36.196V36.3741H72.9347V36.4389L73.1432 36.5036L73.2758 36.3255L73.9579 36.5522L74.2989 36.4389L74.2232 36.2608L72.9916 36.0827L72.8589 36.196ZM77.5579 34.5126L77.4821 34.6906H76.3263L76.1179 34.464L75.7768 34.5773L75.4358 35.4514L75.701 35.3381L75.9095 35.0468V34.9335H76.0421L75.6253 35.6295L75.2842 35.8076L75.2084 35.9209L75.0758 35.9856L74.8105 36.7464L75.4926 37.0378L76.1747 36.5683H76.3074L75.9663 37.2158L76.3074 37.6853V38.0414L75.9663 38.446L75.1516 38.6727L74.6021 38.5594L74.5263 38.4946L74.7916 38.3165L74.8674 38.1385L74.6021 38.0737L74.0526 38.4784H73.92L73.5789 37.7176L73.5032 37.7824H73.2947L73.1621 37.8957H73.0295L72.9537 37.8309L72.8779 37.8957L73.0105 38.2518L73.2189 38.3165L73.7684 39.0126L76.9705 38.4946L77.6526 38.786V38.4946L77.1032 38.3165L77.0274 38.1385L76.6105 37.9604L76.5347 37.313L76.8 37.1349L76.6674 36.8435H76.8V36.3741L76.5916 36.0827L76.3832 36.018L76.2505 36.0827L75.9853 35.8561L75.9095 35.5647L75.9853 35.4514L76.3263 35.3381L76.4021 35.5162L76.3263 35.7428H76.4589L77.4821 34.9335L77.5579 34.9982L77.4821 35.1115L77.6905 35.5162L77.8989 35.6295L77.3495 36.5683L77.6905 36.5036L78.0316 36.6816L78.4484 36.3903L78.1074 36.0989L77.9747 36.2122H77.8421V36.0342L78.1074 35.6781L77.8989 35.2734L77.9747 34.982L77.8421 34.6906H77.5768L77.7853 34.464L77.52 34.5288L77.5579 34.5126ZM72.9916 34.5773L73.0674 34.6421L73.4842 35.2248L73.7495 34.8687L73.4842 34.464L73.1432 34.3993L73.0105 34.5773H72.9916ZM73.2 35.5162L73.1242 35.6942L73.2568 35.8076L73.3895 35.6942L73.3137 35.5162H73.1811H73.2ZM73.2 34.0594L73.2758 34.3507H73.4084L73.9579 34.4155V34.3507L73.3516 33.9946L73.2189 34.0594H73.2ZM75.0379 34.7068H75.1137L74.9053 35.2248L74.0147 35.6942L73.5979 35.5809L73.5221 35.8723L73.6547 36.0989H74.2042L74.1284 35.8723L74.3937 35.6942L74.6589 36.0989L75 35.9209L75.0758 35.7428L75 35.6295L74.9242 35.6942H74.8484L74.7726 35.6295L75.4547 34.5288L74.6968 34.1727L74.9621 34.6906L75.0379 34.7068ZM73.8063 36.8111H73.7305L73.8063 37.0378L73.7305 37.2158H73.5979L73.5221 37.2806L73.5979 37.5072L73.8063 37.5719L73.8821 37.5072V37.3939H73.9579V37.3291L74.0905 37.1511L74.0147 36.795L73.8821 36.7302L73.8063 36.795V36.8111ZM74.2232 34.9496L74.2989 35.1763L74.5642 35.1115L74.7726 34.7554L74.2232 34.286V34.9335V34.9496ZM74.64 37.3453L74.5074 37.4586V37.5234L74.5832 37.5881L74.9242 37.5234L75 37.2968L74.6589 37.3615L74.64 37.3453ZM75.2463 35.3058V35.3705L75.1705 35.4353L75.2463 35.5V35.5647H75.3221V35.3381H75.2463V35.3058ZM76.8758 35.7752L76.8 35.8885L76.9326 36.0018L77.141 35.937L77.2168 35.759L77.141 35.6942L76.8758 35.759V35.7752ZM77.4253 37.8147L77.2168 37.75L77.141 37.8633L77.2168 37.9766H77.7663L77.8421 38.0899L78.0505 38.1547L78.3158 38.0899L78.4484 37.9766L78.3726 37.7986H78.1642L77.8232 37.2806L77.4063 37.7986L77.4253 37.8147ZM77.4253 35.2572L77.3495 35.3705L77.5579 35.4838L77.6337 35.4191V35.241L77.5579 35.1763L77.4253 35.241V35.2572ZM78.4484 37.232L78.3726 37.4101L78.4484 37.4748L78.6568 37.4101L78.7326 37.2968L78.6 37.1835L78.4674 37.2482L78.4484 37.232ZM78.6568 35.3058V35.4191L78.7326 35.4838H78.8653V35.3705L78.7895 35.3058H78.6568ZM79.0737 33.7842L79.1495 33.5576L79.0737 33.4442L78.941 33.3795L79.0737 33.7842ZM78.9979 35.3543L78.9221 35.4676L78.9979 35.5809H79.2063L79.4147 35.4029L79.3389 35.3381H78.9979V35.3543ZM78.9979 36.3417L79.1305 37.3291L79.3389 37.4424H79.4716L79.3389 36.5036L79.2632 36.4389L79.3958 36.3255L79.1305 36.1475L78.9979 36.3255V36.3417ZM79.6042 34.4155L79.7368 34.4802L79.8695 34.3669V34.3022L79.7937 34.2374L79.5853 34.4155H79.6042ZM79.8126 34.9982L79.7368 35.2248L79.8126 35.4029L79.68 35.5809V35.759L80.0968 35.5324L79.8884 35.0144H79.8126V34.9982ZM80.9116 34.8849L80.7789 34.9982L80.8547 35.0629H81.0632V34.9496L80.9874 34.8849H80.9116Z" fill="#D05B50"/>
</svg>
