<svg width="100" height="25" viewBox="0 0 100 25" fill="none" xmlns="http://www.w3.org/2000/svg">
<path d="M0 25L4.73381 3.03525L8.70198 0H17.8211L20.1894 3.03525L15.4199 25H9.29199L10.6833 18.6789H7.51647L6.12514 25H0ZM13.2602 6.32391H10.3019L8.91054 12.6084H12.0774L13.2602 6.32391Z" fill="#000C1A"/>
<path d="M23.6696 25H17.5444L23.0796 0H35.3683L37.7338 3.07185L36.3754 9.35634L32.5801 12.6056L34.9813 15.6774L33.5543 21.9619L29.8304 24.9972H26.8364L28.8205 15.6746H25.8622L23.6696 25ZM27.2535 9.35916H30.2118L31.0132 6.2873H27.8463L27.2535 9.35916Z" fill="#000C1A"/>
<path d="M41.559 25H35.4338L40.7933 0H46.9185L44.9344 9.35634H48.1012L50.0853 0H56.2105L54.262 9.35634L50.4668 12.6056L52.868 15.6408L50.6753 24.9972H44.5529L46.7099 15.6408H43.5787L41.559 25Z" fill="#000C1A"/>
<path d="M59.3471 25H53.2219L58.7571 0H64.9179L59.3471 25Z" fill="#000C1A"/>
<path d="M72.8181 0L69.8241 13.6417L70.7983 16.249L72.8181 13.6417L75.9492 0H82.11L78.5233 15.6437L70.4141 25H67.2802L63.312 15.6437L66.6874 0H72.8181Z" fill="#000C1A"/>
<path d="M95.8591 18.7155L94.4678 25H82.1791L79.8108 21.9647L83.9875 3.03525L87.7114 0H100L98.6417 6.28449H89.5226L88.7213 9.35634H98.049L96.6577 15.6408H87.3273L86.7345 18.7127H95.8591V18.7155Z" fill="#000C1A"/>
</svg>
