<svg width="36" height="36" viewBox="0 0 36 36" fill="none" xmlns="http://www.w3.org/2000/svg">
<path d="M33.8 36L20.65 22.85C19.65 23.7167 18.484 24.3917 17.152 24.875C15.8201 25.3583 14.4027 25.6 12.9 25.6C9.2946 25.6 6.24325 24.35 3.74595 21.85C1.24865 19.35 0 16.3333 0 12.8C0 9.26667 1.25 6.25 3.75 3.75C6.25 1.25 9.275 0 12.825 0C16.375 0 19.3917 1.25 21.875 3.75C24.3583 6.25 25.6 9.26917 25.6 12.8075C25.6 14.2358 25.3667 15.6167 24.9 16.95C24.4333 18.2833 23.7333 19.5333 22.8 20.7L36 33.8L33.8 36ZM12.85 22.6C15.5583 22.6 17.8604 21.6417 19.7563 19.725C21.6521 17.8083 22.6 15.5 22.6 12.8C22.6 10.1 21.6521 7.79167 19.7563 5.875C17.8604 3.95833 15.5583 3 12.85 3C10.1139 3 7.7882 3.95833 5.8729 5.875C3.95763 7.79167 3 10.1 3 12.8C3 15.5 3.95763 17.8083 5.8729 19.725C7.7882 21.6417 10.1139 22.6 12.85 22.6Z" fill="white"/>
</svg>
