<svg width="15" height="15" viewBox="0 0 15 15" fill="none" xmlns="http://www.w3.org/2000/svg">
<path d="M7.49966 11.25C7.67489 11.25 7.82188 11.1907 7.94063 11.0722C8.05938 10.9537 8.11875 10.8068 8.11875 10.6316C8.11875 10.4564 8.05949 10.3094 7.94096 10.1906C7.82243 10.0719 7.67555 10.0125 7.50034 10.0125C7.32511 10.0125 7.17813 10.0718 7.05938 10.1903C6.94063 10.3088 6.88125 10.4557 6.88125 10.6309C6.88125 10.8061 6.94051 10.9531 7.05904 11.0719C7.17758 11.1906 7.32445 11.25 7.49966 11.25ZM6.99375 8.38125H8.11875V3.6375H6.99375V8.38125ZM7.50499 15C6.47081 15 5.49894 14.8031 4.58936 14.4094C3.67979 14.0156 2.88438 13.4781 2.20313 12.7969C1.52188 12.1156 0.984375 11.3197 0.590625 10.4092C0.196875 9.49873 0 8.52586 0 7.49063C0 6.45539 0.196875 5.48252 0.590625 4.57202C0.984375 3.66151 1.52188 2.86875 2.20313 2.19375C2.88438 1.51875 3.68026 0.984375 4.59077 0.590625C5.50127 0.196875 6.47414 0 7.50938 0C8.54461 0 9.51748 0.196875 10.428 0.590625C11.3385 0.984375 12.1313 1.51875 12.8063 2.19375C13.4813 2.86875 14.0156 3.6625 14.4094 4.575C14.8031 5.4875 15 6.46084 15 7.49501C15 8.52919 14.8031 9.50106 14.4094 10.4106C14.0156 11.3202 13.4813 12.1145 12.8063 12.7934C12.1313 13.4724 11.3375 14.0099 10.425 14.4059C9.5125 14.802 8.53916 15 7.50499 15ZM7.50938 13.875C9.27813 13.875 10.7813 13.2531 12.0188 12.0094C13.2563 10.7656 13.875 9.25938 13.875 7.49063C13.875 5.72188 13.2574 4.21875 12.0223 2.98125C10.7871 1.74375 9.27969 1.125 7.5 1.125C5.7375 1.125 4.23438 1.74258 2.99063 2.97773C1.74688 4.21289 1.125 5.72031 1.125 7.5C1.125 9.2625 1.74688 10.7656 2.99063 12.0094C4.23438 13.2531 5.74063 13.875 7.50938 13.875Z" fill="#EB5757"/>
</svg>
