<svg width="511" height="1024" viewBox="0 0 511 1024" fill="none" xmlns="http://www.w3.org/2000/svg">
<path d="M1223.99 753.734L1278.09 721.32L1358.33 656.377L1402.12 577.138L1403.09 472.968L1398.4 405.912L1387.69 282.242L1366.69 94.868L1355.97 -28.8018L1356.9 -272.673L1341.93 -403.434L1309.34 -504.365L1249.24 -545.443L1146.69 -517.727L1095.8 -496.874L987.602 -432.045L697.072 -231.47L488.163 -123.164L379.963 -58.3347L330.112 -18.8291L249.867 46.1138L205.041 106.699L184.929 195.84L75.3454 791.499L13.3501 1098.46L3.5743 1217.55L0.824384 1272.2L24.6271 1371.16L81.5462 1406.92L180.909 1373.89L244.854 1345.21L358.65 1277.03L662.237 1068.63L1126.7 824.072L1223.19 756.623L1223.99 753.734ZM338.767 1057.67L341.98 1046.11L355.039 1038.28L362.474 1050.69L355.012 1055.16L346.202 1070.08L338.767 1057.67ZM366.286 997.817L352.819 928.795L383.648 963.324L382.273 990.648L369.214 998.472L366.286 997.817ZM281.941 797.807L270.257 778.307L300.623 769.75L319.769 784.778L314.145 805.011L281.941 797.807ZM380.338 868.943L368.627 866.323L364.378 859.232L373.188 844.317L384.899 846.936L392.334 859.345L379.275 867.169L380.338 868.943ZM284.718 726.279L269.848 701.461L315.111 700.841L309.487 721.074L284.718 726.279ZM356.098 710.011L363.56 705.54L350.065 653.398L389.268 613.046L363.193 768.397L357.16 711.784L356.098 710.011ZM413.426 822.617L386.847 795.179L399.931 770.475L424.701 765.271L529.66 728.884L440.58 825.621L412.624 825.507L413.426 822.617ZM457.287 866.202L449.852 853.793L462.91 845.969L474.621 848.588L478.87 855.679L458.349 867.975L457.287 866.202ZM324.832 615.516L313.123 612.896L335.044 556.397L342.454 585.686L329.368 610.391L321.906 614.862L324.832 615.516ZM290.844 558.79L282.974 486.414L304.842 463.675L301.629 475.237L301.602 492.117L342.588 501.286L364.921 521.633L286.052 559.253L290.844 558.79ZM322.979 443.171L292.614 451.73L277.717 443.792L364.96 331.292L382.266 330.558L385.549 441.819L363.681 464.558L324.041 444.944L322.979 443.171ZM453.595 678.095L475.491 638.475L463.807 618.976L499.198 631.498L471.651 708.23L452.533 676.322L453.595 678.095ZM388.805 569.96L386.993 537.318L400.052 529.493L401.863 562.135L388.805 569.96ZM534.345 795.941L530.123 771.97L538.933 757.055L551.992 749.231L571.138 764.259L571.11 781.139L552.428 809.197L533.282 794.168L534.345 795.941ZM606.161 839.639L594.477 820.139L603.287 805.224L631.243 805.338L618.157 830.042L605.099 837.866L606.161 839.639ZM408.916 480.818L397.233 461.319L404.695 456.847L400.446 449.756L416.718 430.37L441.46 442.046L493.749 376.989L534.763 369.279L538.985 393.25L429.41 485.403L408.916 480.818ZM982.026 387.98L962.88 372.951L849.084 441.133L843.433 478.246L802.419 485.957L711.484 410.35L745.036 407.11L784.675 426.724L792.11 439.133L805.169 431.309L718.455 379.673L673.193 380.292L658.297 372.353L640.99 373.087L564.951 305.42L612.991 233.272L710.952 244.442L724.011 236.618L647.946 185.829L650.723 114.301L627.356 75.3011L567.223 51.1028L472.136 74.348L425.472 119.171L422.259 130.733L460.06 134.584L479.205 149.613L457.337 172.352L376.683 160.449L363.625 168.273L379.965 271.709L368.255 269.09L347.735 281.386L327.241 276.801L314.183 284.625L310.968 296.186L299.258 293.567L288.95 246.743L305.222 227.357L313.65 118.716L662.91 -13.4562L710.949 -85.6028L730.067 -53.6941L687.652 -1.78041L691.874 22.1905L662.516 66.2808L697.538 141.659L735.339 145.511L741.399 185.244L754.457 177.419L785.259 228.828L783.857 273.032L767.585 292.418L750.278 293.151L739.031 333.617L750.687 369.997L765.584 377.935L806.598 370.225L802.377 346.254L780.045 325.907L793.103 318.083L946.948 346.36L950.162 334.798L935.264 326.86L929.232 270.247L942.318 245.543L826.614 175.142L864.441 162.112L886.338 122.494L946.497 129.811L932.036 181.839L911.543 177.255L898.484 185.079L910.168 204.579L959.652 227.93L965.685 284.543L992.265 311.981L998.325 351.713L972.208 367.362L1007.6 379.885L977.232 388.443L982.026 387.98ZM528.188 650.265L531.402 638.703L534.206 550.295L583.691 573.646L584.127 633.612L554.796 660.823L530.054 649.147L528.188 650.265ZM487.105 535.152L467.959 520.124L473.583 499.891L494.076 504.475L498.299 528.445L485.24 536.269L487.105 535.152ZM582.697 694.696L571.041 658.316L584.1 650.492L633.951 610.987L638.2 618.078L601.871 692.845L584.563 693.578L582.697 694.696ZM721.167 515.367L728.629 510.895L674.12 466.464L555.638 467.59L522.032 504.589L495.452 477.153L493.641 444.508L547.74 412.095L555.15 441.384L592.95 445.234L592.513 385.268L637.776 384.649L656.922 399.678L656.895 416.557L645.184 413.938L637.721 418.409L634.508 429.971L773.892 510.276L722.638 593.986L714.767 521.611L721.167 515.367ZM461.831 357.569L454.369 362.04L446.961 332.751L427.815 317.722L414.757 325.547L403.046 322.927L395.638 293.638L411.91 274.252L423.621 276.872L431.056 289.28L438.518 284.809L442.767 291.9L467.509 303.576L483.413 347.045L474.603 361.961L462.892 359.341L461.831 357.569ZM625.018 536.84L617.61 507.55L647.975 498.992L691.863 525.697L668.565 609.52L626.08 538.612L625.018 536.84ZM508.863 249.888L488.37 245.304L484.121 238.213L487.335 226.651L525.162 213.622L547.495 233.969L509.667 246.997L508.863 249.888ZM702.389 437.482L698.14 430.391L686.429 427.771L689.643 416.209L685.394 409.118L692.856 404.647L707.726 429.465L700.264 433.936L702.389 437.482ZM832.021 289.948L817.124 282.01L822.747 261.777L847.517 256.572L866.662 271.601L863.448 283.162L833.083 291.721L832.021 289.948ZM752.291 34.1716L736.019 53.5579L721.122 45.62L721.149 28.7401L775.25 -3.67459L775.277 -20.5545L791.549 -39.9407L821.915 -48.4981L842.408 -43.9134L846.629 -19.9424L826.109 -7.64719L826.518 69.1988L751.488 37.0627L752.291 34.1716ZM920.109 314.259L905.212 306.322L918.298 281.618L930.009 284.237L941.692 303.737L938.478 315.298L921.172 316.033L920.109 314.259ZM891.266 37.631L872.121 22.6021L875.334 11.0401L900.103 5.83584L914.999 13.7745L909.376 34.0076L892.068 34.7407L891.266 37.631ZM1038.18 236.288L1030.75 223.879L1033.96 212.318L1047.02 204.493L1054.45 216.902L1051.24 228.464L1038.18 236.288ZM1179.06 378.332L1201.39 398.679L1201.37 415.56L1192.56 430.474L1179.06 378.332ZM1068.57 210.851L1053.68 202.913L1053.7 186.032L1074.22 173.737L1106.43 180.942L1103.22 192.503L1069.64 212.623L1068.57 210.851ZM1003.78 102.716L952.052 -13.2436L965.138 -37.9477L978.197 -45.7719L1026.74 64.8682L1023.53 76.4302L1044.02 81.0149L1029.59 116.163L1004.85 104.487L1003.78 102.716ZM1189.87 277.899L1198.68 262.984L1219.18 267.569L1223.43 274.66L1220.21 286.222L1188.01 279.017L1189.87 277.899ZM1172.16 201.786L1149.83 181.44L1145.6 157.469L1120.86 145.794L1109.18 126.295L1165.09 126.523L1178.56 195.544L1171.1 200.015L1172.16 201.786ZM1287.79 149.367L1267.3 144.782L1270.51 133.221L1291.03 120.926L1298.47 133.335L1295.25 144.896L1287.79 149.367Z" fill="#0D5672" fill-opacity="0.05"/>
</svg>
