<svg width="539" height="1024" viewBox="0 0 539 1024" fill="none" xmlns="http://www.w3.org/2000/svg">
<path d="M21.5599 -74.351L83.5525 -62.7559L181.364 -29.7448L249.961 29.3384L287.065 126.681L305.974 191.187L338.899 310.874L384.321 493.868L417.246 613.555L502.857 841.908L534.262 969.721L538.78 1075.68L496.695 1135.09L390.905 1144.74L335.944 1142.87L211.959 1119.68L-130.164 1032.56L-363.691 1003.6L-487.676 980.407L-548.149 960.686L-645.96 927.675L-709.046 886.442L-758.88 809.845L-1068.62 289.386L-1233.42 23.0945L-1283.97 -85.1724L-1305.54 -135.459L-1317.61 -236.528L-1276.67 -289.839L-1172.02 -293.391L-1102.09 -288.722L-971.694 -264.333L-614.609 -174.417L-94.1112 -106.497L19.8033 -76.7808L21.5599 -74.351ZM-914.112 -51.7338L-907.08 -42.009L-892.117 -39.2102L-889.457 -53.4294L-898.008 -55.0288L-911.452 -65.953L-914.112 -51.7338ZM-867.509 -5.17428L-856.152 64.2261L-839.243 21.1361L-850.027 -4.00733L-864.991 -6.80611L-867.509 -5.17428ZM-877.095 211.681L-881.274 234.026L-849.827 231.498L-837.097 210.752L-849.401 193.734L-877.095 211.681ZM-809.55 110.786L-819.62 117.312L-821.14 125.437L-807.696 136.361L-797.625 129.835L-794.966 115.616L-809.93 112.817L-809.55 110.786ZM-849.635 277.786L-854.954 306.225L-812.297 291.077L-824.601 274.059L-849.635 277.786ZM-777.051 268.236L-768.5 269.836L-763.035 323.417L-712.253 347.632L-790.687 211.023L-776.671 266.204L-777.051 268.236ZM-762.425 142.726L-777.813 177.691L-756.96 196.308L-731.926 192.581L-620.863 190.227L-738.008 130.474L-764.182 140.295L-762.425 142.726ZM-736.443 86.6164L-739.103 100.836L-724.139 103.634L-714.069 97.1082L-712.549 88.9827L-736.063 84.5846L-736.443 86.6164ZM-773.531 367.707L-783.6 374.233L-743.412 419.593L-746.642 389.554L-767.497 370.937L-776.048 369.337L-773.531 367.707ZM-785.689 432.709L-767.919 503.309L-739.511 517.032L-746.542 507.307L-752.434 491.489L-717.187 468.648L-703.317 441.809L-790.344 433.94L-785.689 432.709ZM-715.38 529.955L-746.827 532.482L-758.037 545.102L-637.138 620.274L-620.655 614.949L-656.239 509.481L-684.647 495.758L-715 527.924L-715.38 529.955ZM-674.539 264.284L-640.24 293.825L-644.419 316.17L-615.586 292.13L-668.08 229.751L-674.919 266.315L-674.539 264.284ZM-697.715 388.194L-688.071 419.431L-673.107 422.23L-682.751 390.993L-697.715 388.194ZM-639.772 125.721L-635.401 149.665L-621.957 160.589L-606.993 163.388L-594.263 142.643L-600.154 126.824L-627.422 107.008L-640.152 127.753L-639.772 125.721ZM-587.616 59.7904L-591.796 82.1351L-578.352 93.0594L-552.178 83.2383L-573.033 64.621L-587.996 61.8222L-587.616 59.7904ZM-647.881 464.792L-652.06 487.136L-643.509 488.736L-645.029 496.861L-623.034 509.385L-603.891 489.839L-532.254 532.671L-491.117 525.649L-495.488 501.705L-630.257 453.371L-647.881 464.792ZM-78.225 352.691L-90.9552 373.437L-221.353 349.047L-239.548 316.211L-280.686 323.233L-339.681 425.728L-307.094 417.106L-276.741 384.94L-274.081 370.721L-259.117 373.52L-322.484 452.07L-365.141 467.218L-376.35 479.838L-392.833 485.165L-440.619 575.038L-370.502 625.996L-282.527 581.481L-267.564 584.28L-321.239 658.336L-293.78 724.441L-302.138 769.131L-350.115 812.717L-447.353 823.963L-506.685 798.149L-513.716 788.424L-479.609 771.677L-466.879 750.932L-495.287 737.208L-566.778 776.396L-581.741 773.598L-602.362 670.93L-612.433 677.454L-635.947 673.056L-653.57 684.477L-668.534 681.678L-675.565 671.955L-685.636 678.479L-679.031 725.967L-657.036 738.491L-611.381 837.433L-237.957 840.002L-167.841 890.959L-161.002 854.395L-218.814 820.456L-223.185 796.512L-266.035 765.371L-259.389 682.52L-225.282 665.773L-233.407 626.41L-218.443 629.209L-207.425 570.301L-224.1 529.339L-246.095 516.815L-262.579 522.142L-287.187 488.106L-288.899 449.943L-277.688 437.323L-236.551 430.3L-232.179 454.244L-246.049 481.083L-231.085 483.882L-96.6543 403.907L-89.6233 413.632L-100.834 426.252L-86.8176 481.433L-65.9627 500.05L-149.991 606.27L-109.994 605.343L-75.6948 634.883L-21.8273 607.117L-53.4666 563.357L-71.0896 574.777L-86.0533 571.978L-81.874 549.634L-43.5881 510.542L-57.604 455.361L-42.2143 420.396L-50.3391 381.034L-80.2663 375.436L-51.4343 351.395L-82.8813 353.923L-78.225 352.691ZM-594.923 264.458L-587.892 274.183L-554.541 356.107L-516.255 317.015L-536.684 260.635L-573.642 245.312L-592.785 264.858L-594.923 264.458ZM-593.445 386.673L-606.175 407.419L-593.871 424.437L-576.248 413.016L-580.618 389.073L-595.582 386.274L-593.445 386.673ZM-559.251 203.854L-557.539 242.017L-542.575 244.816L-482.102 264.537L-480.583 256.411L-540.629 198.927L-557.113 204.254L-559.251 203.854ZM-367.094 323.891L-358.544 325.49L-394.216 386.094L-505.705 426.211L-550.074 403.195L-565.464 438.158L-555.818 469.397L-493.827 480.992L-497.057 450.953L-462.95 434.207L-442.522 490.588L-399.864 475.44L-387.134 454.695L-393.025 438.876L-403.096 445.402L-411.647 443.803L-418.678 434.078L-315.886 310.342L-393.034 249.66L-375.265 320.26L-367.094 323.891ZM-555.435 561.973L-563.986 560.373L-560.754 590.411L-573.484 611.156L-588.448 608.358L-598.518 614.884L-595.287 644.921L-573.292 657.445L-563.221 650.919L-560.562 636.7L-552.011 638.299L-550.491 630.174L-531.348 610.628L-531.541 564.341L-544.984 553.416L-555.055 559.942L-555.435 561.973ZM-464.713 337.167L-461.481 367.206L-430.035 364.678L-398.161 324.387L-449.136 253.883L-464.333 335.136L-464.713 337.167ZM-473.915 646.599L-491.538 658.02L-493.058 666.145L-486.027 675.87L-446.029 674.941L-432.159 648.102L-472.157 649.031L-473.915 646.599ZM-357.637 403.447L-359.157 411.572L-369.228 418.098L-362.197 427.823L-363.717 435.949L-355.166 437.548L-349.847 409.11L-358.397 407.51L-357.637 403.447ZM-184.816 496.74L-196.027 509.36L-183.723 526.378L-158.688 522.651L-145.958 501.906L-152.99 492.182L-184.436 494.709L-184.816 496.74ZM-170.696 764.282L-192.691 751.759L-203.901 764.379L-198.01 780.197L-136.017 791.792L-130.126 807.611L-108.131 820.134L-76.6842 817.606L-59.061 806.186L-63.4325 782.242L-86.947 777.844L-113.267 705.645L-172.454 761.851L-170.696 764.282ZM-110.666 443.333L-121.876 455.953L-101.021 474.57L-90.9506 468.044L-86.7713 445.7L-93.8026 435.976L-110.286 441.302L-110.666 443.333ZM-41.5839 712.745L-54.3141 733.491L-47.2831 743.216L-22.2488 739.488L-11.04 726.868L-23.3441 709.85L-39.8274 715.177L-41.5839 712.745ZM27.1432 475.416L24.4836 489.635L31.5131 499.36L46.4783 502.159L49.1379 487.939L42.1068 478.215L27.1432 475.416ZM109.884 293.269L123.754 266.43L117.863 250.61L104.419 239.687L109.884 293.269ZM64.4814 488.706L53.271 501.326L59.162 517.146L82.6749 521.544L110.369 503.598L103.339 493.873L64.8611 486.676L64.4814 488.706ZM41.3052 612.617L33.0926 739.327L53.9476 757.944L68.9112 760.743L75.9837 640.129L68.9527 630.404L86.5758 618.983L60.8279 591.041L41.6849 610.587L41.3052 612.617ZM154.923 383.685L168.367 394.61L185.99 383.189L187.51 375.064L180.479 365.339L152.785 383.286L154.923 383.685ZM164.76 461.211L150.89 488.05L155.261 511.994L136.117 531.54L131.938 553.883L184.286 534.241L172.929 464.841L164.38 463.242L164.76 461.211ZM291.403 470.182L273.779 481.602L280.811 491.326L304.325 495.724L306.985 481.505L299.953 471.781L291.403 470.182Z" fill="#0D5672" fill-opacity="0.05"/>
</svg>
